<svg width="76" height="21" viewBox="0 0 76 21" fill="none" xmlns="http://www.w3.org/2000/svg">
<path d="M0.728027 0.967999H7.70403C9.68803 0.967999 10.68 1.90667 10.68 3.784V18.184C10.68 20.0613 9.68803 21 7.70403 21H0.728027V0.967999ZM7.76803 17.8V4.168C7.76803 3.784 7.70403 3.53867 7.57603 3.432C7.44803 3.304 7.19203 3.24 6.80803 3.24H3.64003V18.728H6.80803C7.19203 18.728 7.44803 18.6747 7.57603 18.568C7.70403 18.44 7.76803 18.184 7.76803 17.8Z" fill="#8BE617"/>
<path d="M21.2115 21L20.4115 16.36H16.1875L15.4515 21H12.5715L16.1235 0.967999H20.3155L24.1235 21H21.2115ZM16.5395 14.024H20.0275L18.2035 3.464L16.5395 14.024Z" fill="#8BE617"/>
<path d="M28.692 21H26.164V0.967999H29.332L32.756 13.384L36.18 0.967999H39.348V21H36.82V6.344L34.068 16.648H31.444L28.692 6.376V21Z" fill="#8BE617"/>
<path d="M45.576 18.664H51.368V21H42.664V0.967999H51.144V3.304H45.576V9.48H50.184V11.816H45.576V18.664Z" fill="#8BE617"/>
<path d="M56.5448 18.664H62.3368V21H53.6328V0.967999H62.1128V3.304H56.5448V9.48H61.1528V11.816H56.5448V18.664Z" fill="#8BE617"/>
<path d="M67.4815 12.904V21H64.6015V0.967999H71.1615C73.1455 0.967999 74.1375 1.90667 74.1375 3.784V10.056C74.1375 11.6773 73.4229 12.6053 71.9935 12.84L75.1615 21H72.0575L69.0495 12.904H67.4815ZM67.4815 3.304V10.6H70.2975C70.6815 10.6 70.9375 10.5467 71.0655 10.44C71.1935 10.312 71.2575 10.056 71.2575 9.672V4.232C71.2575 3.848 71.1935 3.60266 71.0655 3.496C70.9375 3.368 70.6815 3.304 70.2975 3.304H67.4815Z" fill="#8BE617"/>
</svg>
