<svg width="20" height="20" viewBox="0 0 20 20" fill="none" xmlns="http://www.w3.org/2000/svg">
<path d="M2.50195 9.16632H14.9624" stroke="#263444" stroke-width="1.5" stroke-linecap="round" stroke-linejoin="round"/>
<path d="M4.16418 3.33057L7.49891 6.66529" stroke="#263444" stroke-width="1.5" stroke-linecap="round" stroke-linejoin="round"/>
<path fill-rule="evenodd" clip-rule="evenodd" d="M13.9453 16.8963V16.8963C13.5545 16.5089 13.3347 15.9814 13.3347 15.4312C13.3347 14.8809 13.5545 14.3535 13.9453 13.9661V13.9661L15.4194 12.501L16.8936 13.9661C17.2837 14.3538 17.5031 14.8811 17.5031 15.4312C17.5031 15.9812 17.2837 16.5086 16.8936 16.8963V16.8963C16.0774 17.7054 14.7615 17.7054 13.9453 16.8963V16.8963Z" stroke="#263444" stroke-width="1.25" stroke-linecap="round" stroke-linejoin="round"/>
<path fill-rule="evenodd" clip-rule="evenodd" d="M14.7579 9.50442L9.99267 14.2696C9.01598 15.2463 7.43247 15.2463 6.45578 14.2696L3.22938 11.0432C2.76034 10.5742 2.49683 9.93805 2.49683 9.27472C2.49683 8.6114 2.76034 7.97524 3.22938 7.5062L7.9945 2.74107C8.32007 2.41549 8.84793 2.41549 9.1735 2.74107L14.7579 8.32541C14.9142 8.48175 15.002 8.69381 15.002 8.91492C15.002 9.13602 14.9142 9.34808 14.7579 9.50442Z" stroke="#263444" stroke-width="1.25" stroke-linecap="round" stroke-linejoin="round"/>
</svg>
