<svg width="20" height="20" viewBox="0 0 20 20" fill="none" xmlns="http://www.w3.org/2000/svg">
<path fill-rule="evenodd" clip-rule="evenodd" d="M12.5011 16.1692V9.05208C12.5011 8.69809 12.3605 8.35859 12.1101 8.10836L10.2243 6.22257C9.97404 5.97218 9.63454 5.83157 9.28054 5.83157H4.66446C3.92777 5.83157 3.33057 6.42878 3.33057 7.16546V16.1692C3.33057 16.9059 3.92777 17.5031 4.66446 17.5031H11.1672C11.9039 17.5031 12.5011 16.9059 12.5011 16.1692V16.1692Z" stroke="#626C78" stroke-width="1.5" stroke-linecap="round" stroke-linejoin="round"/>
<path d="M12.5011 14.1684H15.3356C16.0723 14.1684 16.6695 13.5712 16.6695 12.8345V4.16422C16.6695 3.24336 15.923 2.49686 15.0021 2.49686H8.83291C8.09623 2.49686 7.49902 3.09406 7.49902 3.83075V5.83158" stroke="#626C78" stroke-width="1.5" stroke-linecap="round" stroke-linejoin="round"/>
<path d="M12.5011 9.1663H9.83333C9.46498 9.1663 9.16638 8.86769 9.16638 8.49935V5.83157" stroke="#626C78" stroke-width="1.5" stroke-linecap="round" stroke-linejoin="round"/>
</svg>
