<svg width="20" height="20" viewBox="0 0 20 20" fill="none" xmlns="http://www.w3.org/2000/svg">
<path d="M13.9343 6.60661C14.6813 6.36016 15.499 6.66922 15.8962 7.34819L17.2747 9.70534C17.4996 10.0898 17.5613 10.5482 17.4461 10.9784C17.3308 11.4087 17.0482 11.7749 16.6613 11.9955C14.5415 13.2037 11.2614 15.0733 8.28102 16.7721C7.43977 17.2516 6.48808 17.5035 5.51978 17.5031V17.5031" stroke="#263444" stroke-width="1.5" stroke-linecap="round" stroke-linejoin="round"/>
<path fill-rule="evenodd" clip-rule="evenodd" d="M4.16419 2.49683H6.66523C7.58609 2.49683 8.33259 3.24333 8.33259 4.16419V14.5852C8.33259 16.1967 7.02621 17.5031 5.41471 17.5031V17.5031C3.80321 17.5031 2.49683 16.1967 2.49683 14.5852V4.16419C2.49683 3.24333 3.24333 2.49683 4.16419 2.49683Z" stroke="#263444" stroke-width="1.5" stroke-linecap="round" stroke-linejoin="round"/>
<path d="M5.41479 17.5031V17.5031C6.80548 17.5038 8.09203 16.7663 8.79413 15.5658C10.5657 12.5366 12.4637 9.29114 13.7546 7.08371C13.9795 6.69921 14.0411 6.24072 13.9259 5.81047C13.8106 5.38022 13.5279 5.01398 13.1409 4.79343L10.7346 3.4219C9.94089 2.96952 8.9309 3.24016 8.46971 4.02882L8.33268 4.26311" stroke="#263444" stroke-width="1.5" stroke-linecap="round" stroke-linejoin="round"/>
<path d="M5.62343 14.5855C5.62328 14.7005 5.52996 14.7937 5.41492 14.7937C5.29988 14.7936 5.20664 14.7004 5.20659 14.5853C5.20654 14.4703 5.2997 14.377 5.41474 14.3768C5.47011 14.3767 5.52323 14.3987 5.56238 14.4379C5.60154 14.477 5.6235 14.5301 5.62343 14.5855" stroke="#263444" stroke-width="1.25" stroke-linecap="round" stroke-linejoin="round"/>
</svg>
