<svg width="24" height="24" viewBox="0 0 24 24" fill="none" xmlns="http://www.w3.org/2000/svg">
<g id="Frame 28">
<path id="Path-3" fill-rule="evenodd" clip-rule="evenodd" d="M5.09957 11.0269C9.39309 9.05118 12.2561 7.74864 13.6886 7.11937C17.7788 5.32258 18.6287 5.01044 19.1826 5.00011C19.3045 4.99786 19.5769 5.02976 19.7533 5.181C20.0151 5.40534 20.0166 5.8923 19.9875 6.2146C19.7659 8.67432 18.8068 14.6433 18.3189 17.3983C18.1124 18.5639 17.7059 18.9548 17.3124 18.9931C16.4571 19.0762 15.8076 18.3961 14.9792 17.8226C13.683 16.9251 12.9507 16.3664 11.6924 15.4907C10.2383 14.4786 11.1809 13.9224 12.0096 13.0133C12.2265 12.7754 15.9949 9.15514 16.0678 8.82672C16.077 8.78564 16.0854 8.63251 15.9993 8.5517C15.9132 8.47088 15.7861 8.49847 15.6944 8.52046C15.5644 8.55164 13.4936 9.99727 9.48203 12.8573C8.89423 13.2836 8.36184 13.4913 7.88484 13.4804C7.35895 13.4685 6.34743 13.1664 5.59543 12.9082C4.67309 12.5916 3.94002 12.4241 4.00388 11.8864C4.03713 11.6062 4.40234 11.3197 5.09957 11.0269Z" fill="black"/>
</g>
</svg>
