<svg width="20" height="20" viewBox="0 0 20 20" fill="none" xmlns="http://www.w3.org/2000/svg">
<path fill-rule="evenodd" clip-rule="evenodd" d="M5 15.4867C6.3075 14.2158 8.07667 13.4342 10.0192 13.4342C11.9425 13.4342 13.6925 14.2 15 15.4475C13.6925 16.7183 11.9233 17.5 9.98083 17.5C8.0575 17.5 6.3075 16.7342 5 15.4867Z" stroke="#263444" stroke-width="1.5" stroke-linecap="round" stroke-linejoin="round"/>
<path d="M3.3125 13.3542C2.80417 12.3425 2.5 11.21 2.5 10C2.5 5.855 5.855 2.5 10 2.5C14.145 2.5 17.5 5.855 17.5 10C17.5 11.2083 17.1975 12.3417 16.6858 13.3525" stroke="#263444" stroke-width="1.5" stroke-linecap="round" stroke-linejoin="round"/>
<path d="M11.7678 6.56557C12.7441 7.54188 12.7441 9.1248 11.7678 10.1011C10.7915 11.0774 9.20854 11.0774 8.23223 10.1011C7.25592 9.1248 7.25592 7.54188 8.23223 6.56557C9.20854 5.58927 10.7915 5.58927 11.7678 6.56557" stroke="#263444" stroke-width="1.5" stroke-linecap="round" stroke-linejoin="round"/>
</svg>
